<svg xmlns="http://www.w3.org/2000/svg" xmlns:xlink="http://www.w3.org/1999/xlink" fill="none" version="1.1" width="512" height="512" viewBox="0 0 512 512"><g><g><rect x="0" y="0" width="512" height="512" rx="64" fill="#FFFFFF" fill-opacity="1"/></g><g transform="matrix(1,0,0,-1,0,832)"><g><g><g><g><g><g><path d="M372.29241821289065,653.741244140625L372.29241821289065,654.670244140625L372.29241821289065,655.134244140625C372.29241821289065,661.011244140625,372.7574182128906,665.886244140625,373.6854182128906,669.760244140625C374.6134182128906,673.6282441406249,376.15841821289064,677.2632441406249,378.3284182128906,680.672244140625L372.29241821289065,680.672244140625L371.3634182128906,680.672244140625L315.65471821289066,680.672244140625L315.65471821289066,539.514244140625L230.69741821289062,467.541044140625L230.69741821289062,416.000244140625L371.3634182128906,520.941244140625L372.29241821289065,653.741244140625Z" fill="#000000" fill-opacity="1" style="mix-blend-mode:passthrough"/></g></g><g><g><path d="M204.236,547.407L203.772,547.8720000000001L204.236,547.8720000000001L204.236,568.999L204.236,616.362L204.236,669.528L204.236,707.14L204.236,711.783C204.236,716.115,204.469,719.677,204.932,722.463C205.396,725.249,205.934,727.4110000000001,206.557,728.9639999999999C207.174,730.509,207.95,732.0550000000001,208.878,733.607L204.236,733.607L148.062,733.607L52.89147,733.607L52.89147,707.14L148.062,707.14L148.062,563.1949999999999L128.56380000000001,546.015L108.60159999999999,563.1949999999999L108.60159999999999,605.203L52.89147,605.203L52.89147,547.8720000000001L93.28110000000001,514.4395L45,471.2564L45,416L129.0284,485.6509L213.985,416L213.985,471.2564L164.311,514.4395L204.236,547.407Z" fill="#000000" fill-opacity="1" style="mix-blend-mode:passthrough"/></g></g><g><g><path d="M289.19311887207033,690.8878394165039C291.66681887207034,695.2188394165039,295.14891887207034,698.7018394165038,299.6388188720703,701.3358394165039C304.1220188720703,703.9618394165038,308.7643188720703,705.7468394165039,313.5658188720703,706.6758394165039C318.36091887207033,707.6038394165039,324.0119188720703,708.2208394165038,330.5113188720703,708.532839416504L402.4697188720703,708.532839416504L402.4697188720703,528.8338394165039L458.17971887207034,528.8338394165039L458.17971887207034,709.9258394165039C458.17971887207034,716.1148394165039,458.7157188720703,721.0698394165039,459.8037188720703,724.7848394165039C460.8847188720703,728.4988394165039,462.5097188720703,731.9018394165039,464.6787188720703,734.9998394165038L325.86901887207034,734.9998394165038C323.0833188720703,734.9998394165038,317.9764188720703,734.3768394165039,310.54841887207033,733.1428394165039C303.1205188720703,731.9018394165039,295.9977188720703,728.4988394165039,289.19311887207033,722.9268394165039L289.19311887207033,734.9998394165038L233.4837188720703,734.9998394165038L233.4837188720703,533.941439416504L289.19311887207033,533.941439416504L289.19311887207033,690.8878394165039Z" fill="#000000" fill-opacity="1" style="mix-blend-mode:passthrough"/></g></g><g><g><path d="M414.54007446289063,445.9498C412.3714744628906,448.2717,411.2905744628906,450.9777,411.2905744628906,454.0758L411.2905744628906,493.0796C411.2905744628906,495.5542,411.52237446289064,497.6438,411.9869744628906,499.3485C412.45127446289064,501.0464,412.9151744628906,502.3664,413.37947446289064,503.2955C413.84367446289065,504.22429999999997,414.3079744628906,504.9934,414.7726744628906,505.6174C415.2364744628906,506.2334,415.7733744628906,506.6981,416.3967744628906,507.01009999999997L409.89777446289065,507.01009999999997L356.0450744628906,506.5461L356.0450744628906,440.1457C356.0450744628906,433.3327,358.3664244628906,427.6809,363.00875446289064,423.19686C367.65147446289063,418.7064,373.37427446289064,416.30481,380.1859744628906,416L467.0000744628906,416L467.0000744628906,442.4671L422.43267446289065,442.4671C419.3351744628906,442.4671,416.7015744628906,443.628,414.54007446289063,445.9498Z" fill="#000000" fill-opacity="1" style="mix-blend-mode:passthrough"/></g></g></g></g></g></g><g transform="matrix(1,0,0,-1,0,1379.2359619140625)"><path d="M115.02178394317627,718.5899809570312Q115.02178394317627,719.3011809570312,114.98688394317627,720.0115809570312Q114.95198394317626,720.7218809570312,114.88228394317628,721.4296809570312Q114.81258394317626,722.1374809570312,114.70828394317627,722.8409809570312Q114.60388394317627,723.5445809570313,114.46518394317627,724.2420809570312Q114.32648394317627,724.9396809570312,114.15368394317628,725.6295809570313Q113.98088394317627,726.3194809570313,113.77448394317628,727.0000809570313Q113.56808394317628,727.6806809570312,113.32848394317627,728.3502809570313Q113.08898394317626,729.0199809570313,112.81678394317626,729.6770809570312Q112.54468394317627,730.3340809570312,112.24068394317626,730.9770809570313Q111.93668394317626,731.6199809570312,111.60148394317628,732.2472809570313Q111.26628394317626,732.8744809570312,110.90068394317626,733.4844809570312Q110.53508394317626,734.0945809570312,110.14008394317628,734.6858809570313Q109.74498394317627,735.2772809570313,109.32138394317627,735.8484809570313Q108.89778394317628,736.4197809570312,108.44668394317627,736.9695809570312Q107.99558394317627,737.5193809570312,107.51808394317626,738.0463809570313Q107.04058394317627,738.5732809570312,106.53778394317627,739.0761809570313Q106.03488394317627,739.5791809570312,105.50808394317627,740.0567809570313Q104.98118394317626,740.5343809570312,104.43148394317626,740.9855809570313Q103.88178394317626,741.4367809570313,103.31068394317627,741.8604809570312Q102.73958394317627,742.2840809570313,102.14828394317627,742.6792809570312Q101.55708394317627,743.0743809570313,100.94718394317627,743.4400809570312Q100.33718394317627,743.8056809570312,99.71008394317627,744.1409809570313Q99.08298394317626,744.4761809570313,98.44018394317627,744.7802809570312Q97.79738394317627,745.0843809570313,97.14038394317626,745.3565809570313Q96.48348394317627,745.6286809570313,95.81398394317627,745.8683809570313Q95.14448394317627,746.1079809570313,94.46398394317626,746.3143809570313Q93.78348394317626,746.5208809570313,93.09378394317628,746.6936809570312Q92.40398394317627,746.8664809570313,91.70658394317627,747.0051809570313Q91.00908394317628,747.1439809570312,90.30578394317627,747.2483809570313Q89.60238394317628,747.3526809570312,88.89468394317626,747.4223809570312Q88.18708394317628,747.4920809570312,87.47678394317627,747.5269809570312Q86.76658394317627,747.5618809570312,86.05548394317627,747.5618809570312Q85.34448394317627,747.5618809570312,84.63418394317627,747.5269809570312Q83.92398394317627,747.4920809570312,83.21638394317627,747.4223809570312Q82.50868394317627,747.3526809570312,81.80528394317628,747.2483809570313Q81.10188394317626,747.1439809570312,80.40448394317627,747.0051809570313Q79.70708394317627,746.8664809570313,79.01728394317627,746.6936809570312Q78.32748394317628,746.5208809570313,77.64708394317627,746.3143809570313Q76.96658394317627,746.1079809570313,76.29708394317626,745.8682809570313Q75.62758394317626,745.6286809570313,74.97058394317627,745.3565809570313Q74.31368394317627,745.0843809570313,73.67088394317628,744.7802809570312Q73.02808394317627,744.4761809570313,72.40088394317627,744.1409809570313Q71.77378394317627,743.8056809570312,71.16388394317627,743.4399809570313Q70.55398394317626,743.0743809570313,69.96278394317628,742.6792809570312Q69.37148394317627,742.2840809570313,68.80038394317627,741.8604809570312Q68.22918394317627,741.4367809570313,67.67958394317627,740.9855809570313Q67.12988394317627,740.5343809570312,66.60298394317627,740.0567809570313Q66.07610394317626,739.5791809570312,65.57329394317627,739.0761809570313Q65.07048394317627,738.5732809570312,64.59295394317627,738.0463809570313Q64.11542394317627,737.5193809570312,63.66431394317627,736.9695809570312Q63.21321394317627,736.4197809570312,62.78962394317627,735.8484809570313Q62.36603394317627,735.2772809570313,61.97097394317627,734.6858809570313Q61.57592394317627,734.0945809570312,61.21035394317627,733.4844809570312Q60.84478394317627,732.8744809570312,60.50958394317627,732.2472809570313Q60.17438394317627,731.6199809570312,59.87035394317627,730.9770809570313Q59.56632394317627,730.3340809570312,59.29420394317627,729.6770809570312Q59.02208394317627,729.0199809570313,58.78253394317627,728.3502809570313Q58.54297394317627,727.6806809570312,58.33656394317627,727.0000809570313Q58.13014394317627,726.3194809570313,57.95736594317627,725.6295809570313Q57.78458694317627,724.9396809570312,57.64586194317627,724.2420809570312Q57.50713694317627,723.5445809570313,57.40279994317627,722.8409809570312Q57.29846194317627,722.1374809570312,57.22876394317627,721.4296809570312Q57.15906614317627,720.7218809570312,57.12417504317627,720.0115809570312Q57.08928394317627,719.3011809570312,57.08928394317627,718.5899809570312Q57.08928394317627,717.8786809570313,57.12417504317627,717.1683809570312Q57.15906614317627,716.4579809570313,57.22876394317627,715.7501809570313Q57.29846194317627,715.0423809570312,57.40279994317627,714.3388809570313Q57.50713694317627,713.6353809570312,57.64586194317627,712.9377809570312Q57.78458694317627,712.2402809570312,57.95736594317627,711.5503809570313Q58.13014394317627,710.8603809570312,58.33656394317627,710.1797809570312Q58.54297394317627,709.4992809570313,58.78253394317627,708.8295809570312Q59.02208394317627,708.1599809570313,59.29420394317627,707.5028809570313Q59.56632394317627,706.8457809570313,59.87035394317627,706.2028809570312Q60.17438394317627,705.5598809570313,60.50958394317627,704.9326809570313Q60.84478394317627,704.3053809570313,61.21035394317627,703.6953809570313Q61.57592394317627,703.0853809570312,61.97097394317627,702.4939809570312Q62.36603394317627,701.9025809570312,62.78962394317627,701.3313809570312Q63.21321394317627,700.7600809570313,63.66431394317627,700.2102809570313Q64.11542394317627,699.6605809570312,64.59295394317627,699.1335609570312Q65.07048394317627,698.6065809570313,65.57329394317627,698.1036709570312Q66.07610394317626,697.6007609570313,66.60298394317627,697.1231409570313Q67.12988394317627,696.6455109570312,67.67958394317627,696.1943109570312Q68.22918394317627,695.7431209570312,68.80038394317627,695.3194509570312Q69.37148394317627,694.8957709570312,69.96278394317628,694.5006409570312Q70.55398394317626,694.1055009570313,71.16388394317627,693.7398609570313Q71.77378394317627,693.3742209570313,72.40088394317627,693.0389509570313Q73.02808394317627,692.7036909570312,73.67088394317628,692.3996009570312Q74.31368394317627,692.0955109570313,74.97058394317627,691.8233409570313Q75.62758394317626,691.5511709570312,76.29708394317626,691.3115609570312Q76.96658394317627,691.0719609570313,77.64708394317627,690.8655009570313Q78.32748394317628,690.6590509570312,79.01728394317627,690.4862339570312Q79.70708394317627,690.3134219570312,80.40448394317627,690.1746689570313Q81.10188394317626,690.0359169570313,81.80528394317628,689.9315589570313Q82.50868394317627,689.8272009570312,83.21638394317627,689.7574889570312Q83.92398394317627,689.6877769570312,84.63418394317627,689.6528789570312Q85.34448394317627,689.6179809570312,86.05548394317627,689.6179809570312Q86.76658394317627,689.6179809570312,87.47678394317627,689.6528789570312Q88.18708394317628,689.6877769570312,88.89468394317626,689.7574889570312Q89.60238394317628,689.8272009570312,90.30578394317627,689.9315589570313Q91.00918394317627,690.0359169570313,91.70658394317627,690.1746689570313Q92.40398394317627,690.3134219570312,93.09378394317628,690.4862339570312Q93.78348394317626,690.6590509570312,94.46398394317626,690.8655009570313Q95.14448394317627,691.0719609570313,95.81398394317627,691.3115609570312Q96.48348394317627,691.5511709570312,97.14038394317626,691.8233409570313Q97.79738394317627,692.0955109570313,98.44018394317627,692.3996009570312Q99.08298394317626,692.7036909570312,99.71008394317627,693.0389509570313Q100.33718394317627,693.3742209570313,100.94718394317627,693.7398609570313Q101.55708394317627,694.1055009570313,102.14828394317627,694.5006409570312Q102.73958394317627,694.8957709570312,103.31068394317627,695.3194409570312Q103.88178394317626,695.7431209570312,104.43148394317626,696.1943109570312Q104.98118394317626,696.6455109570312,105.50808394317627,697.1231409570313Q106.03488394317627,697.6007609570313,106.53778394317627,698.1036709570312Q107.04058394317627,698.6065809570313,107.51808394317626,699.1335609570312Q107.99558394317627,699.6605809570312,108.44668394317627,700.2102809570313Q108.89778394317628,700.7600809570313,109.32138394317627,701.3313809570312Q109.74498394317627,701.9025809570312,110.14008394317628,702.4939809570312Q110.53508394317626,703.0853809570312,110.90068394317626,703.6953809570313Q111.26628394317626,704.3053809570313,111.60148394317628,704.9326809570313Q111.93668394317626,705.5598809570313,112.24068394317626,706.2028809570312Q112.54468394317627,706.8457809570313,112.81688394317626,707.5028809570313Q113.08898394317626,708.1599809570313,113.32848394317627,708.8295809570312Q113.56808394317628,709.4992809570313,113.77448394317628,710.1797809570312Q113.98088394317627,710.8603809570312,114.15368394317628,711.5503809570313Q114.32648394317627,712.2402809570312,114.46518394317627,712.9377809570312Q114.60388394317627,713.6353809570312,114.70828394317627,714.3388809570313Q114.81258394317626,715.0423809570312,114.88228394317628,715.7501809570313Q114.95198394317626,716.4579809570313,114.98688394317627,717.1683809570312Q115.02178394317627,717.8786809570313,115.02178394317627,718.5899809570312Z" fill="#01B832" fill-opacity="1" style="mix-blend-mode:passthrough"/></g></g></g></svg>